<svg width="125" height="125" viewBox="0 0 125 125" fill="none" xmlns="http://www.w3.org/2000/svg">
<path d="M2.48981 2.56728H122.656V122.733H2.48981V2.56728Z" fill="#F5DE19"/>
<path d="M83.2144 96.4499C84.2383 98.5296 85.829 100.278 87.8032 101.493C89.7774 102.707 92.0548 103.34 94.3727 103.317C99.0506 103.317 102.042 100.978 102.042 97.7374C102.042 93.8749 98.9691 92.493 93.8191 90.2399L90.9952 89.0297C82.8411 85.5577 77.4336 81.2103 77.4336 72.0176C77.4336 63.5502 83.8711 57.0999 93.9693 57.0999C97.2383 56.8638 100.504 57.5954 103.36 59.2035C106.216 60.8115 108.535 63.2248 110.029 66.1423L101.201 71.7859C100.626 70.3392 99.6246 69.1016 98.33 68.237C97.0354 67.3724 95.5087 66.9218 93.9521 66.9449C93.273 66.8769 92.5872 66.9511 91.9384 67.1628C91.2895 67.3745 90.6919 67.7191 90.1836 68.1745C89.6753 68.6299 89.2674 69.1863 88.986 69.808C88.7045 70.4298 88.5557 71.1034 88.549 71.7859C88.549 75.172 90.6476 76.5453 95.4928 78.6525L98.3167 79.8627C107.913 83.9784 113.337 88.1713 113.337 97.6001C113.337 107.767 105.351 113.338 94.6259 113.338C90.4472 113.604 86.2806 112.655 82.6291 110.606C78.9776 108.557 75.9972 105.494 74.0475 101.789L83.2144 96.4499ZM43.3236 97.4284C45.0961 100.574 46.7097 103.235 50.5894 103.235C54.2973 103.235 56.6406 101.784 56.6406 96.1409V57.7436H67.9319V96.2911C67.9319 107.982 61.0653 113.303 51.07 113.303C47.5369 113.496 44.0281 112.616 41.0048 110.777C37.9815 108.939 35.5852 106.229 34.1309 103.003L43.3236 97.4284Z" fill="black"/>
</svg>
